<svg width="800pt" height="650pt" viewBox="0 0 800 650" version="1.1" xmlns="http://www.w3.org/2000/svg"><path fill="#484848" opacity=".8" d="M205.03 0H644.8l.11.67c-.45.1-1.37.3-1.83.4C497.7.99 352.32 1.12 206.94 1c-.57-.13-1.72-.4-2.29-.53l.38-.47z"/><path fill="#4d4d4d" opacity="1" d="M191.77 12.01C191.95 5.43 198.5.77 204.65.47c.57.13 1.72.4 2.29.53 145.38.12 290.76-.01 436.14.07.46-.1 1.38-.3 1.83-.4 5.75 0 9.6 6.02 9.47 11.39-.01 70.85.09 141.69-.05 212.53 43.56-.02 87.11 0 130.67 0 6.98.49 12.95 6.28 14.45 13-.72 2.75-.42 5.61-.45 8.42.01 75.33-.01 150.65 0 225.98-.03 1.76.15 3.52.54 5.24-1.07 7.45-7.89 13.83-15.52 13.91-51.01-.03-102.02.03-153.03-.03l-1.37-.03c-.48 16.63-.64 33.27-.44 49.91-.12 2.04 1 3.9.75 5.95-1.44 7.89-.35 16.05-.76 24.05 1.94 12.25-.14 24.68.11 37.01-.06 9.51.09 19.03-.05 28.53l1.83-.23c-1.16 6.85-6.94 12.29-13.68 13.59l.29-1.53c-30.1-.12-60.23-.22-90.35-.02l.33 1.61c-6.89-1.07-12.66-7.08-13.06-14.1-.02-62.96.02-125.92-.02-188.87.05-7.3 6.14-14.17 13.53-14.54 23.68-.03 47.37.01 71.05-.02.08-32.53.07-65.06.01-97.59-37.07.07-74.14-.12-111.21.09 1.89 12.55 4.64 25.21 10.72 36.46 3.19 5.81 7.41 11.43 13.36 14.64 2.91 1.74 6.62-.34 9.55 1.47 5.6 2.83 4.72 12.81-1.62 14.16-40.97.21-81.97-.14-122.94.17.19 57.39.03 114.77.09 172.16-.07 4.83.14 9.67-.15 14.5 14.28.46 28.62.04 42.92.2.93.09 1.77.45 2.53 1.06.09 3.82-.71 7.83.51 11.54l.03.73c-4.04 2.74-8.13 5.74-12.91 7-2.54-1.27-5.37-.4-8.05-.76-131.36.04-262.61.01-394 .01-4.69.08-9.44-.32-14.1.34-.83-1.28-2.41-.19-3.47-.96-2.56-1.25-4.97-2.76-7.33-4.32 1.17-1.4-1.84-2.54-1.02-4.3.58-2.93-1.51-7.79 1.88-9.29 13.26-.14 26.52-.06 39.77-.01.65-3.53.29-7.13.36-10.69.03-65.36-.04-130.72.03-196.07-.19-6.31.26-12.63-.26-18.91l-.84.02c-.63 22.63-.02 45.3-.28 67.95.06 49.66.03 99.32.03 148.98-.04 2.72.15 5.43.21 8.16-11.3.41-22.62.04-33.93.22-2.05.05-4.09-.1-6.1-.44 13.11-.67 26.36-.03 39.52-.31-.06-74.24-.01-148.48-.03-222.72-.44-4.47 3.75-8.51 8.09-8.32.32.31.94.92 1.25 1.23 13.4-.39 26.8.44 40.21-.09 7.94-1.86 16.07 1.37 24.06-.5 3.9 1.02 7.98.39 11.96.58 22.65-.3 45.29.24 67.94-.17 2.67-1.29 5.29.5 8.06.14 6.64-.13 13.3.17 19.94-.14 2.97-1.04 6.1-.49 9.08.1 8.99-.07 17.98.4 26.98.03 12-.33 24.02.52 36.01-.09 15.92-.35 32.12.93 47.99-.55 4.1.91 8.72 1.03 12.78.19l.35-.15c1.47-7.69 3.99-15.3 4.84-23.17-7.98-.39-16.02-.05-24.02-.17-43.35.01-86.69 0-130.03.01-2.9.15-5.55-1.27-7.84-2.9-5.19-4.36-8.86-11.02-8.3-17.93 0-100.67.01-201.34-.01-302m22.15 12.81c-.01 79.84-.01 159.68 0 239.52 74.34.22 148.7.03 223.04.1 54.08-.05 108.17.09 162.24-.08.02-7.43.01-14.86 0-22.28-.35-8.09 5.95-15.77 13.83-17.33l.15.95c6.25.54 12.64.42 18.9.11l-.14-1.23c.44-12.79.06-25.7.19-38.55-.04-53.75.06-107.5-.05-161.25-56.02-.13-112.05-.02-168.08-.06-83.36.06-166.73-.13-250.08.1m399.76 220.13c-.08 61.32.06 122.65-.03 183.98.01 1.36-.32 3.95 1.89 3.35 8.64-.05 16.27 7.92 15.54 16.58 50.85-.04 101.71.03 152.56-.03 2.38.63 1.52-2.55 1.7-3.82-.04-65.98.01-131.95-.01-197.92-.05-1.62.19-4.51-2.19-4.37-55.03-.12-110.1.01-165.14-.08-1.74-.21-3.61.66-4.32 2.31m-194.48 37.4c-6.31 1.81-11.41 7.24-12.96 13.6-2.77 9.75 3.94 20.67 13.71 22.99 9.12 2.51 19.54-2.98 22.51-11.97 2.93-7.19.36-15.91-5.47-20.86-4.77-4.17-11.74-5.7-17.79-3.76m181.01 52.92c-.26 32.18-.2 64.39-.03 96.58l.69-.11c.38-18.22-.05-36.47.17-54.69-.2-13.99.21-28.03-.28-41.99l-.55.21M56.6 373.68c-.12 66.82.12 133.65-.12 200.47.64.11 1.93.34 2.58.45 108.85-.04 217.71.04 326.56-.04l1.05.28c.08-.46.25-1.36.33-1.82-.08-66.35.14-132.71-.08-199.06l-1.31-.1-.61-.21c-109.46.03-218.94-.02-328.4.03m490.44 72.24l1.05.45c-2.81.81-2.17 5.42.94 4.91 13.65-.05 27.29 0 40.94-.02 2.72-.12 2.82-3.67.77-4.87l.21-1.23c-14.32-.45-28.68.01-43.01-.2-.23.24-.67.72-.9.96m-31.78.31c-.25 63.14-.06 126.31-.06 189.45l.58.13c.68-10.23.03-20.55.23-30.81.12-51.65-.1-103.3.06-154.95-.31-1.16.68-3.36-.81-3.82m181.79 10.07c-6.19 1.24-11.01 7.4-10.53 13.73.04 6.98 6.54 13.18 13.52 12.88 7.32.24 13.92-6.58 13.42-13.9.07-8.14-8.56-14.78-16.41-12.71m-176.23 3.6c-.3 4.03-.04 8.08-.14 12.12.07 48-.01 96.01.04 144.01-.2 1.98 1.82 3.23 3.28 4.14 32.36-.01 64.71.09 97.07-.03 1.69.22 3.16-1.44 3.21-3.04.14-51.69-.01-103.38.05-155.06-.07-1.5.15-3.25-1.21-4.25-32.73-.29-65.47-.07-98.21-.1-1.65-.19-3.45.61-4.09 2.21m-343.8 129.07c.35 3.13 2.37 6.77 5.92 6.75 26.03-.01 52.07-.01 78.11-.01 3.56.1 6.15-3.6 6.02-6.94-29.68-.29-59.39-.02-89.09-.13l-.96.33m392.54 36.56c-5.33 1.88-7.68 9.27-3.59 13.48 3.59 4.72 11.69 3.43 13.95-1.96 3.29-6.27-3.79-13.93-10.36-11.52z"/><g fill="#f2f2f2"><path opacity="1" d="M213.92 24.82c83.35-.23 166.72-.04 250.08-.1 56.03.04 112.06-.07 168.08.06.11 53.75.01 107.5.05 161.25-.13 12.85.25 25.76-.19 38.55-6.31.07-12.63-.23-18.91.17-7.88 1.56-14.18 9.24-13.83 17.33.01 7.42.02 14.85 0 22.28-54.07.17-108.16.03-162.24.08-74.34-.07-148.7.12-223.04-.1-.01-79.84-.01-159.68 0-239.52m74.41 15.62c-2.75.86-5.5 3.37-5.06 6.51.09 4.23-.09 8.47.09 12.7 1.07 3.1 4.39 5.07 7.6 5.03 26.02 0 52.05-.02 78.07.01 3.34.31 6.73-2.28 7.04-5.67.07-4.34.01-8.69.02-13.04-.14-3.12-2.97-5.81-6.07-5.9-24.69-.07-49.36-.02-74.05-.01-2.55-.06-5.15-.37-7.64.37m-2.3 34.23c-1.29.63-2.01 2.07-2.47 3.36-.04 19.95-.02 39.9-.01 59.85-.01 2.12 1.97 3.63 3.67 4.52.35.17 1.06.49 1.41.66 2.43.38 4.9.15 7.35.2 86.34 0 172.69.01 259.04 0 1.62.03 3.06-.97 4.45-1.69.18-.29.54-.89.71-1.18 1.76-.57.97-3.04 1.22-4.44-.05-19.32.01-38.64-.03-57.96-.56-2.2-2.28-3.92-4.45-4.56-.95-.34-1.91-.53-2.9-.55-87.68-.04-175.35.03-263.03-.03-1.74.26-3.59.66-4.96 1.82m2.41 74.87c-2.59 1.08-5.52 3.3-5.17 6.46.1 10.57-.07 21.15.09 31.71 1.11 2.99 4.36 5.23 7.57 5.01 24.06-.01 48.11.02 72.16-.01 3.38-.02 6.24-3.35 5.96-6.69-.03-10-.02-19.99.02-29.98.27-3.36-2.62-6.62-5.97-6.74-23.36-.02-46.71.02-70.07-.02-1.53.02-3.08-.05-4.59.26m94.85-.08c-3.05.63-6.36 3.16-6.04 6.59.04 10.34-.05 20.68.03 31.03.53 3.45 4.3 5.8 7.65 5.64 24.04.01 48.08 0 72.11 0 3.3-.04 6.34-3.31 5.87-6.65.01-10.02-.01-20.05.01-30.08.53-3.76-3.22-7.22-6.9-6.7-24.24.11-48.51-.2-72.73.17m98.07-.01c-2.97.72-5.82 3.32-5.54 6.6 0 10-.01 20 0 30-.28 3.8 3.63 6.76 7.19 6.67h72.03c3.12.01 6.42-2.53 6.48-5.79.04-10.31 0-20.62.03-30.92.42-4.04-3.77-7.24-7.58-6.73-24.2.16-48.42-.21-72.61.17m-197.95 56.14c1.02.9 2.26 1.38 3.64 1.16 26.57-.02 53.15.02 79.72-.02 1.79-1.59 1.51-6.4-1.74-5.65-26.37-.18-52.75.04-79.12-.03-2.43-.11-3.21 2.63-2.5 4.54m95.84-4.28c-3.07.84-2.5 5.23.63 5.42 26.69.19 53.4.02 80.1.06 3.51.98 4.24-5.36 1.01-5.81-21.97-.1-43.95-.03-65.92-.04-5.27.33-10.61-.52-15.82.37m98.7 5.43c26.97 0 53.94.13 80.91-.05.75-1.73.58-3.78.15-5.56-26.69-.35-53.39-.02-80.09-.2-3.54-.62-4.46 5.35-.97 5.81m-191.9 10.81c26.84.01 53.69-.01 80.53 0 1.48-1.39 1.42-3.5 1.07-5.35-.4-.14-1.21-.42-1.62-.56-26.63-.1-53.27-.03-79.9-.03-3.96-.57-3.69 5.94-.08 5.94m91.11-3.54c-.26 2.17 2.1 3.36 3.93 3.55 26.81-.01 53.62-.04 80.43.03 1.45-1.36 1.96-3.51 1.12-5.33-1.4-.89-3.12-.57-4.67-.65-25.33-.01-50.66-.01-75.99-.01-1.81-.04-4.51.17-4.82 2.41m99.21-1.75c-1.38 1.72-.58 4.75 1.73 5.1 24.64.04 49.28.03 73.92.03 2.32-.11 4.75.43 6.99-.34.59-1.65.33-3.49.04-5.16l-1.08-.26c-25.32-.1-50.64.03-75.96-.05-1.88.1-3.97-.44-5.64.68m-192.1 10.25c-1.43.73-1.17 2.6-.71 3.86 1.63 2.46 4.93 1.46 7.38 1.57 22.03.07 44.06-.13 66.09.07 3.26-.25 6.58.23 9.81-.31 1.37-1.34 1.7-5.41-.82-5.49-26.68-.01-53.36-.02-80.04 0-.43.07-1.28.22-1.71.3m94.92-.14c-2.06.33-2.86 3.27-1.06 4.44 2.52 2.02 5.97 1.07 8.93 1.2 24.33.02 48.66.02 72.99.02 2.65.45 3.51-2.96 2.75-4.9-.72-1.3-2.5-.9-3.71-1-26.63.26-53.29-.31-79.9.24m99.8 5.64c26.61-.17 53.26.2 79.86-.19.61-1.73.77-3.87-.03-5.55-26.93-.13-53.9-.1-80.84-.02-3.72.1-2.38 6.3 1.01 5.76m-195.17 4.88c-1.8 2.21.2 6.29 3.18 5.74 26.53-.06 53.06.06 79.58-.06 1.44-1.55 1.68-3.98.8-5.85-.67-1.76-2.93-.93-4.33-1.13-25 .02-50-.02-75.01-.01-1.46.01-3.34-.13-4.22 1.31m93.47 1.22c-.72 2.22 1.74 4.2 3.71 4.5 26.85.03 53.7.01 80.55 0 1.52-1.55 1.96-4.14.85-6.03-.88-1.55-2.97-.82-4.38-.99-25.64.03-51.28-.01-76.91 0-1.65-.08-3.07 1.17-3.82 2.52m99.28-1.59c-1.91 2.04-.49 6.35 2.54 6.09 26.48.02 52.96.02 79.44 0 1.21-1.98.82-4.54.46-6.71-.48-.07-1.46-.22-1.95-.3-25.37-.03-50.73 0-76.09-.02-1.44.16-3.43-.47-4.4.94m-191.45 9.82c-2.82.88-2.48 5.89.82 5.58 13.67 0 27.34-.01 41 0 3.25.22 2.83-5.65-.01-5.73-13.93.02-27.9-.18-41.81.15m92.22 4.36c1.11.65 2.31 1.28 3.65 1.22 13.01.04 26.02-.02 39.03.01 1.31-.09 3.04.3 3.93-.98.74-1.67.31-4.62-1.95-4.7-13.67-.16-27.34-.03-41.01-.09-2.36-.13-4.51 2.18-3.65 4.54m98.67.31c1.39 1.22 3.33.83 5.03.93 12.94-.1 25.89.11 38.82-.11 1.15-1.49 1.16-4.09-.02-5.56-13.62-.23-27.27-.01-40.89-.12-2.61-.42-3.82 2.81-2.94 4.86zM615.49 244.71c1.4-.7 3.03-.14 4.54-.29 54.54 0 109.09-.02 163.63.01-.11 68.13-.08 136.27-.02 204.4-50.85.06-101.71-.01-152.56.03.73-8.66-6.9-16.63-15.54-16.58.03-62.53.14-125.05-.05-187.57m23.88 16.83c-1.48.95-2.78 2.57-2.63 4.43-.01 3.32 0 6.63-.01 9.95-.33 2.82 2.54 5.23 5.26 4.92 18.35-.02 36.7-.02 55.05 0 2.09-.12 3.99-1.74 4.31-3.83.02-3.65-.02-7.3.01-10.95.2-2.85-2.5-5.45-5.32-5.22-17.36.02-34.71.01-52.07 0-1.54.05-3.28-.28-4.6.7m-.38 27.4l.02.55c-1.76.01-1.51 2.3-2.19 3.4.02 16.03.03 32.07-.01 48.1.32 2.36 1.7 4.95 4.23 5.43 38.34.02 76.67-.01 115.01.02 1.42-.24 4.23.67 4.44-1.47l.56.05c.23-.44.71-1.31.95-1.75.64-14.73.1-29.57.28-44.34-.2-2.74.45-5.61-.46-8.25-.73-1.96-2.86-2.98-4.88-2.81-37.99.02-75.98-.01-113.98.01-1.4-.07-2.88.1-3.97 1.06m1.37 62.53c-2.28.74-3.94 3.16-3.65 5.58.05 8.3-.05 16.6.02 24.9-.06 2.33 2.1 4.48 4.41 4.57 16.61.09 33.24-.02 49.86.03 2.37.26 4.88-1.31 5.63-3.54.11-8.66-.02-17.34.05-26.01.42-3.09-2.65-5.97-5.68-5.68-16.88.15-33.77-.17-50.64.15m66.02.13c-1.43 1.03-2.87 2.46-2.69 4.39-.01 8.68 0 17.35-.01 26.03-.2 2.37 1.98 4.73 4.41 4.51 16.63.03 33.26.02 49.89.01 2.43.21 4.63-2.14 4.43-4.54-.01-8.67.01-17.34.01-26-.03-2.66-2.59-5.26-5.34-4.67-16.89.21-33.88-.33-50.7.27m-68.25 46.8c-1.38.79-.28 2.24.03 3.33-1.82 1.41-2.26 4.87.14 5.9 18.83.2 37.68.01 56.52.09 2.59-.98 2.5-4.9.02-6 .41-1.12 1.12-2.19 1.12-3.41 1.8-1.34.42-5.01-1.92-4.68-18.36.04-36.73.02-55.09.01-2.45-.09-3.39 4.26-.82 4.76m65.94-4.42a7.507 7.507 0 0 0-.23 4.28c.36 1.16.78 2.32 1.3 3.44l-.92.45c-.81 1.77-.8 3.82.1 5.56 19.11.01 38.23.02 57.34-.04 1.04-1.76 1.35-4.96-.79-5.97.52-1.08.96-2.21 1.22-3.38.49-1.47.44-2.89-.14-4.26-.5-.11-1.5-.32-2-.42-17 .08-33.99-.06-50.99.02-1.63.08-3.33-.27-4.89.32m-65.77 17.35c-.34.17-1.01.5-1.35.67-.73 1.66-.03 4.15 2.15 3.89 18.3 0 36.6-.04 54.9-.01 2.49.44 3.87-3.22 1.7-4.46-19.13-.19-38.27-.04-57.4-.09m66.03-.01c-1.25 1.51-.96 5.14 1.69 4.56 18.57-.17 37.19.31 55.72-.24 1-1.24.82-3.09-.03-4.34-19.13.09-38.26 0-57.38.02m-67.46 11.66c.56 1.65 2.72 1.24 4.09 1.33 16.69-.08 33.38-.01 50.06-.01 1.61-.04 3.28.1 4.84-.44 1.35-.98.95-2.76.1-3.91-.48-.09-1.45-.26-1.93-.35-18.34-.06-36.68-.01-55.02-.01-1.86-.34-2.83 1.91-2.14 3.39m67.16-3c-.61 1.33-.59 2.67.04 3.99 1.59.54 3.29.23 4.95.29 16.01.05 32.03-.01 48.04.04 1.63-.07 3.35.23 4.92-.39.61-1.32.62-2.67.02-4.03-1.62-.51-3.33-.24-4.97-.29-16 0-32-.03-48-.02-1.67.08-3.44-.32-5 .41m-66.78 8.4c-1 1.8-.71 4.14 1.16 5.24 9.75-.04 19.51.12 29.26-.05 2.9-1.07 2.68-5.71-.64-5.87-9.34-.01-18.69-.07-28.02.05-.44.16-1.32.47-1.76.63m66.91-.21c-.8 1.45-.49 3.2-.15 4.74 1.08 1.07 2.69.6 4.05.75 8.53-.09 17.05.04 25.58-.05 2.3-.66 2.01-3.64 1.26-5.36l-1.85-.56c-8.03-.08-16.05.05-24.08-.04-1.6.13-3.37-.37-4.81.52zM56.6 373.68c109.46-.05 218.94 0 328.4-.03l.61.21c-.11 66.9-.14 133.8.01 200.7-108.85.08-217.71 0-326.56.04-.65-.11-1.94-.34-2.58-.45.24-66.82 0-133.65.12-200.47m68.77 13.64c-4.97 2.74-2.34 9.13-3.01 13.65-.66 3.31 2.14 6.74 5.49 6.78 18.73-.03 37.46 0 56.19-.02 2.26-.31 3.9-2.54 4.13-4.72.02-3.67-.01-7.33.01-10.98.05-2.45-1.64-5.03-4.16-5.42-17.99 0-35.98.01-53.97-.01-1.56.06-3.32-.3-4.68.72m-2.79 31.82c-.04 16.62-.02 33.24 0 49.86.1.55.3 1.65.4 2.19l1.04.23-.07.66.68-.01c.63.31 1.87.95 2.5 1.27 52.94.01 105.88 0 158.83 0 10.35-.2 20.77.42 31.09-.31l.56-1.08c.27-.14.8-.41 1.07-.55l.69-1.44c.21-16.64.02-33.29.1-49.94.33-2.67-1.95-4.71-4.38-5.17-62.72 0-125.44.01-188.16-.01-2.08.52-4.25 1.92-4.35 4.3m3.79 59.27c-2.17.99-4.22 2.99-3.95 5.58.07 8.62-.05 17.25.05 25.87-.03 2.77 2.94 4.85 5.53 4.72 16.66.01 33.31.02 49.96.01 2.98.32 5.85-2.55 5.47-5.54-.03-8.36 0-16.72-.02-25.08.29-2.91-2.41-5.94-5.39-5.69-17.22.07-34.45-.18-51.65.13m67.92-.06c-2.01.67-3.72 2.52-3.86 4.69.01 8.66.03 17.32-.01 25.98-.38 3.01 2.56 5.95 5.56 5.66 16.38-.05 32.75 0 49.13-.01 2.95.21 5.6-2.75 5.29-5.65-.06-8.66.03-17.32-.03-25.98-.08-2.67-2.72-5.01-5.38-4.78-16.9.06-33.81-.07-50.7.09m68.11.03c-1.89.76-3.81 2.45-3.78 4.65.02 8.67-.03 17.34-.03 26.01-.33 2.99 2.45 5.94 5.5 5.55 16.62-.03 33.25.03 49.87-.03 2.27.01 3.89-2.09 4.56-4.05.07-8.84 0-17.68.03-26.52.38-3.04-2.44-6.06-5.52-5.73-16.87.11-33.77-.14-50.63.12m-139.53 47.56l1.23.49-.85.73c.62.87 1.5 1.55 1.98 2.56-3.03.22-4.17 4.98-.99 5.95 18.92.21 37.86-.03 56.79.11 3.19-.14 2.98-4.56.82-6.01.31-1.05 1.45-2.57.09-3.35l1.16-.48c.81-1.61.18-4.55-2.09-4.23-18.64 0-37.28-.1-55.91.01-2.43-.33-3.18 2.45-2.23 4.22m68.14-3.89c-.59 1.35-.66 2.76-.22 4.23.37 1.18.85 2.33 1.42 3.45-2.26 1-1.99 4.23-.82 5.99 19.41-.04 38.84.13 58.25-.05.99-1.75 1.38-5.02-.79-5.97.5-1.12 1.03-2.23 1.32-3.41.13-1.48.96-4.1-1.2-4.55-17.63-.15-35.27 0-52.9-.08-1.68.07-3.45-.26-5.06.39m70.08 4.31c19 .05 38 .01 56.99-.01.39-.17 1.17-.52 1.56-.69.12-1.28.26-2.68-.69-3.7-1.63-.44-3.33-.29-4.99-.31-17.65.11-35.3-.01-52.94.05-2.92.22-3.41 5.1.07 4.66m-.16 9.4c19.25-.06 38.5.03 57.75-.06 1.29-1.84 1.53-6.15-1.7-5.83-18.67.06-37.37-.11-56.02.12-3.1.49-3.08 5.18-.03 5.77m-135.86 9.56c-1.09.54-1.42 1.3-.97 2.27-2.68 1.1-2.15 4.89.31 5.96 19.04.06 38.09-.03 57.13.03 2.19-1.06 2.77-4.82.43-5.99 0-.58-.01-1.74-.02-2.32 1.69-1.88 2.42-5.51-.15-6.97-18.95-.16-37.91-.01-56.87-.08-3.75.5-3.23 6.36.14 7.1m67.04-7.06c-2.4 1.2-2.04 5.76.04 7.08-.96.52-1.16 1.75-.02 2.21l-1.15.39c-.89 1.89-.83 5.77 2.04 5.64 18.52-.01 37.04-.06 55.55.01 2.19-.77 2.23-3.78 1.38-5.55l-1.13-.49c1.13-.41 1.14-1.67.09-2.17 1.96-1.52 2.23-5.83-.05-7.21-18.91.14-37.84.01-56.75.09m68.17.1c-2.49 1.86-2.01 5.65.76 6.96-.79.66-1.09 1.45-.92 2.36-2.77 1.35-1.41 5.49 1.32 5.91 18.72-.07 37.44.03 56.16-.06 2.68-.46 2.48-4.06 1.37-5.88.21-1.04-.14-1.81-1.05-2.3 2.45-1.44 2.25-4.99.71-7.02-19.44-.12-38.92-.22-58.35.03m-136.96 18.15c-2.15 1.4-.88 5.36 1.76 5.14 9.29.01 18.58 0 27.87.03 3.32.33 3.29-5.97.13-6-9.36.04-18.72.1-28.08 0-.42.2-1.26.62-1.68.83m68.06 5.1c10.07.1 20.15 0 30.22.06.98-1.7.84-3.77.3-5.57-9.59-.82-19.33-.21-28.98-.34-3.1.06-3.17 4.03-1.54 5.85m68.83-5.5c-2.48 1.24-1.96 5.12.79 5.55 9.85-.03 19.72.05 29.58-.02 3.15-.69 2.51-5.67-.54-5.89-9.65-.04-19.31-.07-28.96 0l-.87.36zM523.27 459.34c33.11.13 66.23.12 99.35.01.18 52.79-.04 105.61.11 158.42l-.58.37c-33.09 0-66.19.02-99.28-.01-.22-52.74-.02-105.5-.1-158.24l.5-.55m13.03 11.98c-4.42 1.7-2.47 7.1-2.89 10.69-.51 2.47.92 5.38 3.63 5.63 23.67 0 47.35-.02 71.02.01 2.01.1 3.77-1.78 4.07-3.64.04-2.69-.02-5.38.03-8.06.33-2.35-1.74-4.89-4.14-4.75-23.91.11-47.83-.13-71.72.12m-2.67 24.76v35.88c.08 1.78-.28 3.61.31 5.34.53.53 1.07 1.04 1.62 1.56l1.41.37c23.65 0 47.3-.02 70.96.01 1.45-.1 3.47-.95 3.62-2.63l.27.27c.49-1.92.28-3.91.33-5.86-.04-11.7.05-23.4-.03-35.09-.05-1.29-1.15-2.04-1.91-2.9l-1.24-.43c-23.96-.02-47.91-.01-71.86-.01-1.89-.19-3.48 1.73-3.48 3.49m1.74 48.27c-1.08.44-1.99 1.45-1.97 2.67-.04 7.02.01 14.04-.02 21.07-.31 2.05 1.52 4.15 3.6 4.15 23.65.09 47.3-.02 70.95.05 2.38.38 4.4-2.03 4.22-4.28-.04-7 .08-14.01-.04-21.01-.34-3.57-4.51-3.12-7.08-3-21.34.14-42.68.02-64.02.07-1.87.09-3.84-.33-5.64.28m-.05 34.1c-1.13.35-1.88 1.4-1.92 2.56-.03 7 .02 14-.03 21-.27 2.07 1.39 4.41 3.61 4.29 23.67.07 47.35-.02 71.02.04 2.4.29 4.42-1.98 4.15-4.32-.03-7.04.07-14.08-.02-21.11-.11-1.52-1.65-2.71-3.09-2.76-23.03-.02-46.05.02-69.08-.02-1.55.07-3.18-.25-4.64.32z"/></g><g fill="#ff4522"><path opacity="1" d="M288.33 40.44c2.49-.74 5.09-.43 7.64-.37 24.69-.01 49.36-.06 74.05.01 3.1.09 5.93 2.78 6.07 5.9-.01 4.35.05 8.7-.02 13.04-.31 3.39-3.7 5.98-7.04 5.67-26.02-.03-52.05-.01-78.07-.01-3.21.04-6.53-1.93-7.6-5.03-.18-4.23 0-8.47-.09-12.7-.44-3.14 2.31-5.65 5.06-6.51zM639.37 261.54c1.32-.98 3.06-.65 4.6-.7 17.36.01 34.71.02 52.07 0 2.82-.23 5.52 2.37 5.32 5.22-.03 3.65.01 7.3-.01 10.95-.32 2.09-2.22 3.71-4.31 3.83-18.35-.02-36.7-.02-55.05 0-2.72.31-5.59-2.1-5.26-4.92.01-3.32 0-6.63.01-9.95-.15-1.86 1.15-3.48 2.63-4.43zM125.37 387.32c1.36-1.02 3.12-.66 4.68-.72 17.99.02 35.98.01 53.97.01 2.52.39 4.21 2.97 4.16 5.42-.02 3.65.01 7.31-.01 10.98-.23 2.18-1.87 4.41-4.13 4.72-18.73.02-37.46-.01-56.19.02-3.35-.04-6.15-3.47-5.49-6.78.67-4.52-1.96-10.91 3.01-13.65zM536.3 471.32c23.89-.25 47.81-.01 71.72-.12 2.4-.14 4.47 2.4 4.14 4.75-.05 2.68.01 5.37-.03 8.06-.3 1.86-2.06 3.74-4.07 3.64-23.67-.03-47.35-.01-71.02-.01-2.71-.25-4.14-3.16-3.63-5.63.42-3.59-1.53-8.99 2.89-10.69z"/></g><g fill="#49dee5"><path opacity="1" d="M286.03 74.67c1.37-1.16 3.22-1.56 4.96-1.82 87.68.06 175.35-.01 263.03.03.99.02 1.95.21 2.9.55-.26.32-.79.94-1.06 1.26 1.74.12 2.94 1.34 4 2.6.33 21.03-.27 42.08.32 63.1-.17.29-.53.89-.71 1.18-1.46-1.48-2.73.62-4.3.39-87.38-.13-174.76.05-262.14-.08-1.41.28-3.86-.72-4.4 1.18-.35-.17-1.06-.49-1.41-.66 2.28-1.65-2.9-2.3-2.14-4.4-.04-20.23-.11-40.48.03-60.7.75-.8 1.47-1.63 2.14-2.49l-1.22-.14zM638.99 288.94c1.09-.96 2.57-1.13 3.97-1.06 38-.02 75.99.01 113.98-.01 2.02-.17 4.15.85 4.88 2.81l-.84.42c-.1 17.31.04 34.63-.07 51.94l1.09.23c-.24.44-.72 1.31-.95 1.75l-.56-.05c-40.09-.27-80.19-.07-120.28-.1-1.6-1.51-2.43-3.68-2.36-5.87-.04-14.99-.08-29.98 0-44.98-.16-1.66 1.63-2.83 1.16-4.53l-.02-.55zM124.17 418.25c1.5-1.69 3.52-2.69 5.82-2.38 60.99.05 121.97-.05 182.96.04 2.05-.38 3.54 1.07 4.89 2.37-.12 17.51-.24 35.05.04 52.56l.8.56c-.27.14-.8.41-1.07.55-64.32.11-128.65-.12-192.98.12l-.68.01.07-.66c.5-17.71.19-35.45.15-53.17zM610.21 493.03c.76.86 1.86 1.61 1.91 2.9.08 11.69-.01 23.39.03 35.09-.05 1.95.16 3.94-.33 5.86l-.27-.27c-.92-1.56-1.94.74-2.67 1.28-22.96.12-45.92-.01-68.88.02-1.44.26-3.57-.62-4.44.95-.55-.52-1.09-1.03-1.62-1.56l1.01-.33c.3-13.92-.07-27.84.06-41.76.76-.98 1.76-1.4 2.99-1.25 24.08.26 48.16-.13 72.23.18l-.02-1.11z"/></g><g fill="#02dbe3"><path opacity="1" d="M555.86 74.69c.27-.32.8-.94 1.06-1.26 2.17.64 3.89 2.36 4.45 4.56.04 19.32-.02 38.64.03 57.96-.25 1.4.54 3.87-1.22 4.44-.59-21.02.01-42.07-.32-63.1-1.06-1.26-2.26-2.48-4-2.6zM283.56 78.03c.46-1.29 1.18-2.73 2.47-3.36l1.22.14c-.67.86-1.39 1.69-2.14 2.49-.14 20.22-.07 40.47-.03 60.7-.76 2.1 4.42 2.75 2.14 4.4-1.7-.89-3.68-2.4-3.67-4.52-.01-19.95-.03-39.9.01-59.85z"/></g><g fill="#01dbe3"><path opacity="1" d="M555.17 141.96c1.57.23 2.84-1.87 4.3-.39-1.39.72-2.83 1.72-4.45 1.69-86.35.01-172.7 0-259.04 0-2.45-.05-4.92.18-7.35-.2.54-1.9 2.99-.9 4.4-1.18 87.38.13 174.76-.05 262.14.08zM608.88 537.89c.73-.54 1.75-2.84 2.67-1.28-.15 1.68-2.17 2.53-3.62 2.63-23.66-.03-47.31-.01-70.96-.01l-1.41-.37c.87-1.57 3-.69 4.44-.95 22.96-.03 45.92.1 68.88-.02z"/></g><g fill="#999"><path opacity="1" d="M288.44 149.54c1.51-.31 3.06-.24 4.59-.26 23.36.04 46.71 0 70.07.02 3.35.12 6.24 3.38 5.97 6.74-.04 9.99-.05 19.98-.02 29.98.28 3.34-2.58 6.67-5.96 6.69-24.05.03-48.1 0-72.16.01-3.21.22-6.46-2.02-7.57-5.01-.16-10.56.01-21.14-.09-31.71-.35-3.16 2.58-5.38 5.17-6.46zM383.29 149.46c24.22-.37 48.49-.06 72.73-.17 3.68-.52 7.43 2.94 6.9 6.7-.02 10.03 0 20.06-.01 30.08.47 3.34-2.57 6.61-5.87 6.65-24.03 0-48.07.01-72.11 0-3.35.16-7.12-2.19-7.65-5.64-.08-10.35.01-20.69-.03-31.03-.32-3.43 2.99-5.96 6.04-6.59zM481.36 149.45c24.19-.38 48.41-.01 72.61-.17 3.81-.51 8 2.69 7.58 6.73-.03 10.3.01 20.61-.03 30.92-.06 3.26-3.36 5.8-6.48 5.79h-72.03c-3.56.09-7.47-2.87-7.19-6.67-.01-10 0-20 0-30-.28-3.28 2.57-5.88 5.54-6.6zM640.36 351.47c16.87-.32 33.76 0 50.64-.15 3.03-.29 6.1 2.59 5.68 5.68-.07 8.67.06 17.35-.05 26.01-.75 2.23-3.26 3.8-5.63 3.54-16.62-.05-33.25.06-49.86-.03-2.31-.09-4.47-2.24-4.41-4.57-.07-8.3.03-16.6-.02-24.9-.29-2.42 1.37-4.84 3.65-5.58zM706.38 351.6c16.82-.6 33.81-.06 50.7-.27 2.75-.59 5.31 2.01 5.34 4.67 0 8.66-.02 17.33-.01 26 .2 2.4-2 4.75-4.43 4.54-16.63.01-33.26.02-49.89-.01-2.43.22-4.61-2.14-4.41-4.51.01-8.68 0-17.35.01-26.03-.18-1.93 1.26-3.36 2.69-4.39zM126.37 478.41c17.2-.31 34.43-.06 51.65-.13 2.98-.25 5.68 2.78 5.39 5.69.02 8.36-.01 16.72.02 25.08.38 2.99-2.49 5.86-5.47 5.54-16.65.01-33.3 0-49.96-.01-2.59.13-5.56-1.95-5.53-4.72-.1-8.62.02-17.25-.05-25.87-.27-2.59 1.78-4.59 3.95-5.58zM194.29 478.35c16.89-.16 33.8-.03 50.7-.09 2.66-.23 5.3 2.11 5.38 4.78.06 8.66-.03 17.32.03 25.98.31 2.9-2.34 5.86-5.29 5.65-16.38.01-32.75-.04-49.13.01-3 .29-5.94-2.65-5.56-5.66.04-8.66.02-17.32.01-25.98.14-2.17 1.85-4.02 3.86-4.69zM262.4 478.38c16.86-.26 33.76-.01 50.63-.12 3.08-.33 5.9 2.69 5.52 5.73-.03 8.84.04 17.68-.03 26.52-.67 1.96-2.29 4.06-4.56 4.05-16.62.06-33.25 0-49.87.03-3.05.39-5.83-2.56-5.5-5.55 0-8.67.05-17.34.03-26.01-.03-2.2 1.89-3.89 3.78-4.65zM535.37 544.35c1.8-.61 3.77-.19 5.64-.28 21.34-.05 42.68.07 64.02-.07 2.57-.12 6.74-.57 7.08 3 .12 7 0 14.01.04 21.01.18 2.25-1.84 4.66-4.22 4.28-23.65-.07-47.3.04-70.95-.05-2.08 0-3.91-2.1-3.6-4.15.03-7.03-.02-14.05.02-21.07-.02-1.22.89-2.23 1.97-2.67zM535.32 578.45c1.46-.57 3.09-.25 4.64-.32 23.03.04 46.05 0 69.08.02 1.44.05 2.98 1.24 3.09 2.76.09 7.03-.01 14.07.02 21.11.27 2.34-1.75 4.61-4.15 4.32-23.67-.06-47.35.03-71.02-.04-2.22.12-3.88-2.22-3.61-4.29.05-7 0-14 .03-21 .04-1.16.79-2.21 1.92-2.56z"/></g><path fill="#afafaf" opacity="1" d="M283.41 205.59c-.71-1.91.07-4.65 2.5-4.54 26.37.07 52.75-.15 79.12.03 3.25-.75 3.53 4.06 1.74 5.65-26.57.04-53.15 0-79.72.02-1.38.22-2.62-.26-3.64-1.16z"/><g fill="#b3b3b3"><path opacity="1" d="M379.25 201.31c5.21-.89 10.55-.04 15.82-.37 21.97.01 43.95-.06 65.92.04 3.23.45 2.5 6.79-1.01 5.81-26.7-.04-53.41.13-80.1-.06-3.13-.19-3.7-4.58-.63-5.42zM286.05 217.55c-3.61 0-3.88-6.51.08-5.94 26.63 0 53.27-.07 79.9.03.41.14 1.22.42 1.62.56.35 1.85.41 3.96-1.07 5.35-26.84-.01-53.69.01-80.53 0zM377.16 214.01c.31-2.24 3.01-2.45 4.82-2.41 25.33 0 50.66 0 75.99.01 1.55.08 3.27-.24 4.67.65.84 1.82.33 3.97-1.12 5.33-26.81-.07-53.62-.04-80.43-.03-1.83-.19-4.19-1.38-3.93-3.55zM476.37 212.26c1.67-1.12 3.76-.58 5.64-.68 25.32.08 50.64-.05 75.96.05l1.08.26c.29 1.67.55 3.51-.04 5.16-2.24.77-4.67.23-6.99.34-24.64 0-49.28.01-73.92-.03-2.31-.35-3.11-3.38-1.73-5.1zM379.19 222.37c26.61-.55 53.27.02 79.9-.24 1.21.1 2.99-.3 3.71 1 .76 1.94-.1 5.35-2.75 4.9-24.33 0-48.66 0-72.99-.02-2.96-.13-6.41.82-8.93-1.2-1.8-1.17-1-4.11 1.06-4.44zM283.82 232.89c.88-1.44 2.76-1.3 4.22-1.31 25.01-.01 50.01.03 75.01.01 1.4.2 3.66-.63 4.33 1.13.88 1.87.64 4.3-.8 5.85-26.52.12-53.05 0-79.58.06-2.98.55-4.98-3.53-3.18-5.74zM377.29 234.11c.75-1.35 2.17-2.6 3.82-2.52 25.63-.01 51.27.03 76.91 0 1.41.17 3.5-.56 4.38.99 1.11 1.89.67 4.48-.85 6.03-26.85.01-53.7.03-80.55 0-1.97-.3-4.43-2.28-3.71-4.5zM476.57 232.52c.97-1.41 2.96-.78 4.4-.94 25.36.02 50.72-.01 76.09.02.49.08 1.47.23 1.95.3.36 2.17.75 4.73-.46 6.71-26.48.02-52.96.02-79.44 0-3.03.26-4.45-4.05-2.54-6.09zM419.2 282.35c6.05-1.94 13.02-.41 17.79 3.76 5.83 4.95 8.4 13.67 5.47 20.86-2.97 8.99-13.39 14.48-22.51 11.97-9.77-2.32-16.48-13.24-13.71-22.99 1.55-6.36 6.65-11.79 12.96-13.6zM638.13 398.4c-2.57-.5-1.63-4.85.82-4.76 18.36.01 36.73.03 55.09-.01 2.34-.33 3.72 3.34 1.92 4.68-19.27.25-38.55.02-57.83.09zM704.07 393.98c1.56-.59 3.26-.24 4.89-.32 17-.08 33.99.06 50.99-.02.5.1 1.5.31 2 .42.58 1.37.63 2.79.14 4.26-19.41.12-38.84.21-58.25-.06-.34-1.47-.26-2.89.23-4.28zM638.16 401.73c18.89-.03 37.79-.05 56.68-.01 2.48 1.1 2.57 5.02-.02 6-18.84-.08-37.69.11-56.52-.09-2.4-1.03-1.96-4.49-.14-5.9zM704.22 402.15l.92-.45c18.58 0 37.15.01 55.73 0 2.14 1.01 1.83 4.21.79 5.97-19.11.06-38.23.05-57.34.04-.9-1.74-.91-3.79-.1-5.56zM636.87 422.98c-.69-1.48.28-3.73 2.14-3.39 18.34 0 36.68-.05 55.02.01.48.09 1.45.26 1.93.35.85 1.15 1.25 2.93-.1 3.91-1.56.54-3.23.4-4.84.44-16.68 0-33.37-.07-50.06.01-1.37-.09-3.53.32-4.09-1.33zM704.03 419.98c1.56-.73 3.33-.33 5-.41 16-.01 32 .02 48 .02 1.64.05 3.35-.22 4.97.29.6 1.36.59 2.71-.02 4.03-1.57.62-3.29.32-4.92.39-16.01-.05-32.03.01-48.04-.04-1.66-.06-3.36.25-4.95-.29-.63-1.32-.65-2.66-.04-3.99zM637.25 428.38c.44-.16 1.32-.47 1.76-.63 9.33-.12 18.68-.06 28.02-.05 3.32.16 3.54 4.8.64 5.87-9.75.17-19.51.01-29.26.05-1.87-1.1-2.16-3.44-1.16-5.24zM704.16 428.17c1.44-.89 3.21-.39 4.81-.52 8.03.09 16.05-.04 24.08.04l1.85.56c.75 1.72 1.04 4.7-1.26 5.36-8.53.09-17.05-.04-25.58.05-1.36-.15-2.97.32-4.05-.75-.34-1.54-.65-3.29.15-4.74zM697.05 456.3c7.85-2.07 16.48 4.57 16.41 12.71.5 7.32-6.1 14.14-13.42 13.9-6.98.3-13.48-5.9-13.52-12.88-.48-6.33 4.34-12.49 10.53-13.73zM122.87 525.94c-.95-1.77-.2-4.55 2.23-4.22 18.63-.11 37.27-.01 55.91-.01 2.27-.32 2.9 2.62 2.09 4.23l-1.16.48c-19.28.04-38.56 0-57.84.01l-1.23-.49zM191.01 522.05c1.61-.65 3.38-.32 5.06-.39 17.63.08 35.27-.07 52.9.08 2.16.45 1.33 3.07 1.2 4.55-19.78.23-39.6.25-59.38-.01-.44-1.47-.37-2.88.22-4.23zM261.09 526.36c-3.48.44-2.99-4.44-.07-4.66 17.64-.06 35.29.06 52.94-.05 1.66.02 3.36-.13 4.99.31.95 1.02.81 2.42.69 3.7-.39.17-1.17.52-1.56.69-18.99.02-37.99.06-56.99.01zM124.24 535.67c-3.18-.97-2.04-5.73.99-5.95 18.87.07 37.75-.02 56.62.05 2.16 1.45 2.37 5.87-.82 6.01-18.93-.14-37.87.1-56.79-.11zM191.39 535.72c-1.17-1.76-1.44-4.99.82-5.99 18.88-.01 37.76.07 56.64-.03 2.17.95 1.78 4.22.79 5.97-19.41.18-38.84.01-58.25.05zM260.93 535.76c-3.05-.59-3.07-5.28.03-5.77 18.65-.23 37.35-.06 56.02-.12 3.23-.32 2.99 3.99 1.7 5.83-19.25.09-38.5 0-57.75.06zM125.07 545.32c-3.37-.74-3.89-6.6-.14-7.1 18.96.07 37.92-.08 56.87.08 2.57 1.46 1.84 5.09.15 6.97-18.96.16-37.92.09-56.88.05zM192.11 538.26c18.91-.08 37.84.05 56.75-.09 2.28 1.38 2.01 5.69.05 7.21-18.92-.04-37.84-.01-56.76-.04-2.08-1.32-2.44-5.88-.04-7.08zM260.28 538.36c19.43-.25 38.91-.15 58.35-.03 1.54 2.03 1.74 5.58-.71 7.02-18.96 0-37.92.04-56.88-.03-2.77-1.31-3.25-5.1-.76-6.96zM124.41 553.55c-2.46-1.07-2.99-4.86-.31-5.96 19.29-.1 38.58-.11 57.87 0 2.34 1.17 1.76 4.93-.43 5.99-19.04-.06-38.09.03-57.13-.03zM190.98 547.94l1.15-.39c18.89-.06 37.79-.01 56.69 0l1.13.49c.85 1.77.81 4.78-1.38 5.55-18.51-.07-37.03-.02-55.55-.01-2.87.13-2.93-3.75-2.04-5.64zM261.44 553.59c-2.73-.42-4.09-4.56-1.32-5.91 19.61-.29 39.24-.21 58.85-.03 1.11 1.82 1.31 5.42-1.37 5.88-18.72.09-37.44-.01-56.16.06zM123.32 556.51c.42-.21 1.26-.63 1.68-.83 9.36.1 18.72.04 28.08 0 3.16.03 3.19 6.33-.13 6-9.29-.03-18.58-.02-27.87-.03-2.64.22-3.91-3.74-1.76-5.14zM260.21 556.11l.87-.36c9.65-.07 19.31-.04 28.96 0 3.05.22 3.69 5.2.54 5.89-9.86.07-19.73-.01-29.58.02-2.75-.43-3.27-4.31-.79-5.55zM177.02 588.97l.96-.33c29.7.11 59.41-.16 89.09.13.13 3.34-2.46 7.04-6.02 6.94-26.04 0-52.08 0-78.11.01-3.55.02-5.57-3.62-5.92-6.75zM569.56 625.53c6.57-2.41 13.65 5.25 10.36 11.52-2.26 5.39-10.36 6.68-13.95 1.96-4.09-4.21-1.74-11.6 3.59-13.48z"/></g><g fill="#b1b1b1"><path opacity="1" d="M477.95 206.74c-3.49-.46-2.57-6.43.97-5.81 26.7.18 53.4-.15 80.09.2.43 1.78.6 3.83-.15 5.56-26.97.18-53.94.05-80.91.05zM478.99 228.01c-3.39.54-4.73-5.66-1.01-5.76 26.94-.08 53.91-.11 80.84.02.8 1.68.64 3.82.03 5.55-26.6.39-53.25.02-79.86.19zM285.12 242.34c13.91-.33 27.88-.13 41.81-.15 2.84.08 3.26 5.95.01 5.73-13.66-.01-27.33 0-41 0-3.3.31-3.64-4.7-.82-5.58zM377.34 246.7c-.86-2.36 1.29-4.67 3.65-4.54 13.67.06 27.34-.07 41.01.09 2.26.08 2.69 3.03 1.95 4.7-.89 1.28-2.62.89-3.93.98-13.01-.03-26.02.03-39.03-.01-1.34.06-2.54-.57-3.65-1.22zM476.01 247.01c-.88-2.05.33-5.28 2.94-4.86 13.62.11 27.27-.11 40.89.12 1.18 1.47 1.17 4.07.02 5.56-12.93.22-25.88.01-38.82.11-1.7-.1-3.64.29-5.03-.93zM191.38 561.61c-1.63-1.82-1.56-5.79 1.54-5.85 9.65.13 19.39-.48 28.98.34.54 1.8.68 3.87-.3 5.57-10.07-.06-20.15.04-30.22-.06z"/></g><path fill="#b0b0b0" opacity="1" d="M284.27 222.51c.43-.08 1.28-.23 1.71-.3 26.68-.02 53.36-.01 80.04 0 2.52.08 2.19 4.15.82 5.49-3.23.54-6.55.06-9.81.31-22.03-.2-44.06 0-66.09-.07-2.45-.11-5.75.89-7.38-1.57-.46-1.26-.72-3.13.71-3.86z"/><path fill="#2c2c2c" opacity="1" d="M613.03 224.75c6.28-.4 12.6-.1 18.91-.17l.14 1.23c-6.26.31-12.65.43-18.9-.11l-.15-.95z"/><path fill="#404040" opacity=".84" d="M799.45 237.59l.55.44v239.08l-.46.12c-.39-1.72-.57-3.48-.54-5.24-.01-75.33.01-150.65 0-225.98.03-2.81-.27-5.67.45-8.42z"/><path fill="#484848" opacity="1" d="M613.68 244.95c.71-1.65 2.58-2.52 4.32-2.31 55.04.09 110.11-.04 165.14.08 2.38-.14 2.14 2.75 2.19 4.37.02 65.97-.03 131.94.01 197.92-.18 1.27.68 4.45-1.7 3.82-.06-68.13-.09-136.27.02-204.4-54.54-.03-109.09-.01-163.63-.01-1.51.15-3.14-.41-4.54.29.19 62.52.08 125.04.05 187.57-2.21.6-1.88-1.99-1.89-3.35.09-61.33-.05-122.66.03-183.98z"/><path fill="#09dbe3" opacity="1" d="M636.82 292.89c.68-1.1.43-3.39 2.19-3.4.47 1.7-1.32 2.87-1.16 4.53-.08 15-.04 29.99 0 44.98-.07 2.19.76 4.36 2.36 5.87 40.09.03 80.19-.17 120.28.1-.21 2.14-3.02 1.23-4.44 1.47-38.34-.03-76.67 0-115.01-.02-2.53-.48-3.91-3.07-4.23-5.43.04-16.03.03-32.07.01-48.1z"/><g fill="#00dbe3"><path opacity="1" d="M760.98 291.1l.84-.42c.91 2.64.26 5.51.46 8.25-.18 14.77.36 29.61-.28 44.34l-1.09-.23c.11-17.31-.03-34.63.07-51.94zM533.63 496.08c0-1.76 1.59-3.68 3.48-3.49 23.95 0 47.9-.01 71.86.01l1.24.43.02 1.11c-24.07-.31-48.15.08-72.23-.18-1.23-.15-2.23.27-2.99 1.25-.13 13.92.24 27.84-.06 41.76l-1.01.33c-.59-1.73-.23-3.56-.31-5.34v-35.88z"/></g><g fill="#3c3c3c"><path opacity="1" d="M600.21 335.27l.55-.21c.49 13.96.08 28 .28 41.99-.22 18.22.21 36.47-.17 54.69l-.69.11c-.17-32.19-.23-64.4.03-96.58zM547.04 445.92c.23-.24.67-.72.9-.96 14.33.21 28.69-.25 43.01.2l-.21 1.23c-14.21.06-28.43.08-42.65-.02l-1.05-.45z"/></g><path fill="#545454" opacity=".71" d="M66.93 358.4c-5.22-1.23-11.1 1.4-15.9-1.4 101.77-.05 203.53.11 305.3-.08l.8 1.25-.35.15c-10.92-.46-21.86-.04-32.78-.1-11.98.32-24.06-.77-36.02.47-11.95-.45-24.07-1.22-35.92.24-9.59-.91-19.35-.95-29.06-.77-39.03.07-77.98.12-117 .01-6.31-.02-12.74-.66-18.96.58-6.71-1.47-13.39 1.49-20.11-.35z"/><path fill="#373737" opacity="1" d="M43.01 364.07l.84-.02c.52 6.28.07 12.6.26 18.91-.07 65.35 0 130.71-.03 196.07-.07 3.56.29 7.16-.36 10.69-13.25-.05-26.51-.13-39.77.01-3.39 1.5-1.3 6.36-1.88 9.29-.82 1.76 2.19 2.9 1.02 4.3-.8-.57-1.6-1.14-2.39-1.71.43-3.72.28-7.46.2-11.19l2.04-1.48c2.01.34 4.05.49 6.1.44 11.31-.18 22.63.19 33.93-.22-.06-2.73-.25-5.44-.21-8.16 0-49.66.03-99.32-.03-148.98.26-22.65-.35-45.32.28-67.95z"/><path fill="#303030" opacity="1" d="M385.61 373.86l1.31.1c.22 66.35 0 132.71.08 199.06-.08.46-.25 1.36-.33 1.82l-1.05-.28c-.15-66.9-.12-133.8-.01-200.7z"/><g fill="#fcfcfc"><path opacity="1" d="M638.13 398.4c19.28-.07 38.56.16 57.83-.09 0 1.22-.71 2.29-1.12 3.41-18.89-.04-37.79-.02-56.68.01-.31-1.09-1.41-2.54-.03-3.33zM124.1 526.43c19.28-.01 38.56.03 57.84-.01 1.36.78.22 2.3-.09 3.35-18.87-.07-37.75.02-56.62-.05-.48-1.01-1.36-1.69-1.98-2.56l.85-.73zM190.79 526.28c19.78.26 39.6.24 59.38.01-.29 1.18-.82 2.29-1.32 3.41-18.88.1-37.76.02-56.64.03-.57-1.12-1.05-2.27-1.42-3.45z"/></g><path fill="#fbfbfb" opacity="1" d="M703.84 398.26c19.41.27 38.84.18 58.25.06-.26 1.17-.7 2.3-1.22 3.38-18.58.01-37.15 0-55.73 0a27.55 27.55 0 0 1-1.3-3.44z"/><g fill="#aeaeae"><path opacity="1" d="M638.3 411.33c19.13.05 38.27-.1 57.4.09 2.17 1.24.79 4.9-1.7 4.46-18.3-.03-36.6.01-54.9.01-2.18.26-2.88-2.23-2.15-3.89.34-.17 1.01-.5 1.35-.67zM704.33 411.32c19.12-.02 38.25.07 57.38-.02.85 1.25 1.03 3.1.03 4.34-18.53.55-37.15.07-55.72.24-2.65.58-2.94-3.05-1.69-4.56z"/></g><path fill="#1adce4" opacity="1" d="M122.58 419.14c.1-2.38 2.27-3.78 4.35-4.3 62.72.02 125.44.01 188.16.01 2.43.46 4.71 2.5 4.38 5.17-.08 16.65.11 33.3-.1 49.94l-.69 1.44-.8-.56c-.28-17.51-.16-35.05-.04-52.56-1.35-1.3-2.84-2.75-4.89-2.37-60.99-.09-121.97.01-182.96-.04-2.3-.31-4.32.69-5.82 2.38.04 17.72.35 35.46-.15 53.17l-1.04-.23c-.1-.54-.3-1.64-.4-2.19-.02-16.62-.04-33.24 0-49.86z"/><path fill="#454545" opacity="1" d="M515.26 446.23c1.49.46.5 2.66.81 3.82-.16 51.65.06 103.3-.06 154.95-.2 10.26.45 20.58-.23 30.81l-.58-.13c0-63.14-.19-126.31.06-189.45z"/><path fill="#b5b5b5" opacity="1" d="M548.09 446.37c14.22.1 28.44.08 42.65.02 2.05 1.2 1.95 4.75-.77 4.87-13.65.02-27.29-.03-40.94.02-3.11.51-3.75-4.1-.94-4.91z"/><path fill="#474747" opacity="1" d="M520.82 459.9c.64-1.6 2.44-2.4 4.09-2.21 32.74.03 65.48-.19 98.21.1 1.36 1 1.14 2.75 1.21 4.25-.06 51.68.09 103.37-.05 155.06-.05 1.6-1.52 3.26-3.21 3.04-32.36.12-64.71.02-97.07.03-1.46-.91-3.48-2.16-3.28-4.14-.05-48 .03-96.01-.04-144.01.1-4.04-.16-8.09.14-12.12m2.45-.56l-.5.55c.08 52.74-.12 105.5.1 158.24 33.09.03 66.19.01 99.28.01l.58-.37c-.15-52.81.07-105.63-.11-158.42-33.12.11-66.24.12-99.35-.01z"/><path fill="#00dae3" opacity="1" d="M124.63 472.07c64.33-.24 128.66-.01 192.98-.12l-.56 1.08c-10.32.73-20.74.11-31.09.31-52.95 0-105.89.01-158.83 0-.63-.32-1.87-.96-2.5-1.27z"/><path fill="#545454" opacity=".85" d="M629.62 491.08l1.37.03c.02 48.3.01 96.6.01 144.9-1.96-2.61-1.16-6.03-1.22-9.03-.09-9.34.07-18.67-.07-27.99.82-17.03-.47-33.97.24-50.99.27-10.05-2.15-20.05-.19-30.02.07-8.97-.06-17.94-.14-26.9z"/><g fill="#fff"><path opacity="1" d="M125.07 545.32c18.96.04 37.92.11 56.88-.05.01.58.02 1.74.02 2.32-19.29-.11-38.58-.1-57.87 0-.45-.97-.12-1.73.97-2.27zM192.15 545.34c18.92.03 37.84 0 56.76.04 1.05.5 1.04 1.76-.09 2.17-18.9-.01-37.8-.06-56.69 0-1.14-.46-.94-1.69.02-2.21zM261.04 545.32c18.96.07 37.92.03 56.88.03.91.49 1.26 1.26 1.05 2.3-19.61-.18-39.24-.26-58.85.03-.17-.91.13-1.7.92-2.36z"/></g><path fill="#505050" opacity=".69" d="M0 590.11l.9.31c.08 3.73.23 7.47-.2 11.19l-.7-.59v-10.91z"/><path fill="#505050" opacity=".86" d="M442.41 589.74c1.33 3.59.26 7.73.51 11.54-1.22-3.71-.42-7.72-.51-11.54z"/><path fill="#4b4b4b" opacity=".73" d="M14.01 609.02c48.64-.49 97.34-.12 145.99-.21 86.33-.11 172.64.09 259.01-.08 3.39.22 6.73-.65 10.04.54-.78.19-2.33.57-3.11.77-134.66-.09-269.33-.02-404-.04-2.66-.1-5.51.44-7.93-.98z"/><path fill="#505050" opacity=".75" d="M528.9 650c2.77-2.19 6.8-.99 10.1-1.21 24.75-.05 49.52.15 74.19-.16 1.12.16 2.08.62 2.9 1.37H528.9z"/></svg>